<?xml version="1.0" standalone="no"?>
<!DOCTYPE svg PUBLIC "-//W3C//DTD SVG 20010904//EN"
 "http://www.w3.org/TR/2001/REC-SVG-20010904/DTD/svg10.dtd">
<svg version="1.0" xmlns="http://www.w3.org/2000/svg"
 width="16.000000pt" height="16.000000pt" viewBox="0 0 16.000000 16.000000"
 preserveAspectRatio="xMidYMid meet">

<g transform="translate(0.000000,16.000000) scale(0.100000,-0.100000)"
fill="#000000" stroke="none">
<path d="M30 107 c-34 -17 -36 -42 -6 -72 33 -33 79 -33 111 0 28 27 32 47 13
62 -18 14 -58 23 -58 13 0 -5 12 -10 27 -12 56 -7 22 -78 -37 -78 -56 0 -93
71 -42 78 12 2 22 8 22 13 0 11 0 11 -30 -4z"/>
<path d="M30 70 c0 -5 23 -10 50 -10 28 0 50 5 50 10 0 6 -22 10 -50 10 -27 0
-50 -4 -50 -10z"/>
</g>
</svg>
